<svg xmlns="http://www.w3.org/2000/svg" xmlns:xlink="http://www.w3.org/1999/xlink" viewBox="0 0 390.67 431.42">
  <defs>
    <style>
      .cls-1{isolation:isolate;}.cls-2{fill:#e3363c;}.cls-23,.cls-3{fill:#9d253d;}.cls-4{fill:url(#linear-gradient);}.cls-5{fill:#1b212b;}.cls-6{fill:url(#linear-gradient-2);}.cls-7{fill:#252c38;}.cls-8{fill:#3a4352;}.cls-9{fill:#47505e;}.cls-10{fill:#c5daeb;}.cls-11{fill:#c5d5e0;}.cls-11,.cls-27{mix-blend-mode:multiply;}.cls-12{fill:url(#linear-gradient-3);}.cls-13{fill:#27303f;}.cls-14{fill:#52223e;}.cls-15,.cls-24,.cls-28{fill:none;stroke:#9d253d;stroke-miterlimit:10;}.cls-15,.cls-28{stroke-width:0.72px;}.cls-15,.cls-23,.cls-24{opacity:0.5;}.cls-16{fill:#ab2d3c;}.cls-17{fill:#ff4047;}.cls-18{fill:url(#linear-gradient-4);}.cls-19{fill:#ecf4fa;}.cls-20,.cls-26,.cls-28{opacity:0.7;}.cls-20{filter:url(#AI_GaussianBlur_4);}.cls-21{fill:#e6edf2;}.cls-22{fill:#e13a42;}.cls-24{stroke-width:0.75px;}.cls-25{fill:#e1363c;}.cls-26{fill:url(#linear-gradient-5);}.cls-27{fill:#d8e1e8;}.cls-29{fill:#90a8bd;}.cls-30{fill:#e4ebf0;}
    </style>
    <linearGradient id="linear-gradient" x1="158.6" x2="224.75" y1="58.12" y2="60" gradientUnits="userSpaceOnUse">
      <stop offset=".03" stop-color="#821c30"/>
      <stop offset=".11" stop-color="#8d1f31"/>
      <stop offset=".51" stop-color="#bb2b37"/>
      <stop offset=".82" stop-color="#d8333b"/>
      <stop offset="1" stop-color="#e3363c"/>
    </linearGradient>
    <linearGradient id="linear-gradient-2" x1="122.38" x2="260.55" y1="380.29" y2="381.59" gradientUnits="userSpaceOnUse">
      <stop offset="0" stop-color="#27303f"/>
      <stop offset=".84" stop-color="#2f394a"/>
      <stop offset=".97" stop-color="#313b4c"/>
    </linearGradient>
    <linearGradient id="linear-gradient-3" x1="153.67" x2="220.81" y1="206.12" y2="208.02" xlink:href="#linear-gradient"/>
    <linearGradient id="linear-gradient-4" x1="227.06" x2="126.73" y1="177.32" y2="171.3" xlink:href="#linear-gradient"/>
    <filter id="AI_GaussianBlur_4">
      <feGaussianBlur stdDeviation="4"/>
    </filter>
    <linearGradient id="linear-gradient-5" x1="139.22" x2="169.27" y1="175.17" y2="172.99" gradientUnits="userSpaceOnUse">
      <stop offset="0" stop-color="#b92b37" stop-opacity="0"/>
      <stop offset="1" stop-color="#ad2735"/>
    </linearGradient>
  </defs>
  <g class="cls-1">
    <g id="Layer_2" data-name="Layer 2">
      <g id="Layer_2-2" data-name="Layer 2">
        <path d="M154 33.44l173.7-1.65C317.42 21.16 282.8 0 241.3 0c-37.11 0-78.88 18.33-87.3 33.44z" class="cls-2"/>
        <path d="M241.3 9.84c-49.88 0-90 12.89-88.11 28.51l2 8.2 13.37-.26c22.27-16.65 118.84 12 72.78 12 30.23 0 56.89-4.74 72.78-12h13.57c1.89-8.49 1.83-8 1.83-9C329.47 22.13 290 9.84 241.3 9.84z" class="cls-2"/>
        <path d="M154.95 45.47c1.76 14.63 39.74 13.33 86.35 13.33 47.45 0 86.41 1.39 86.41-14.39C327.7 29.28 289 17 241.3 17c-48.88 0-88.22 12.87-86.35 28.47z" class="cls-3"/>
        <path d="M306.31 97.23c0-34.9.2-54.4.08-54.59-13.63-22.48-114.11-22.84-129.81 0-.13.19-.09 40.83-.09 41.06z" class="cls-4"/>
        <ellipse cx="201.48" cy="401.23" class="cls-5" rx="116.51" ry="29.97" transform="rotate(-1.83 201.212 400.908)"/>
        <path d="M241.18 422.26c38.31-.38 76.75-9.78 76.75-25.41 0-.45-2.5-53.76-2.55-54.21-91.12-2.74-57.26-2.74-148.4 0-.06.44-2.55 53.76-2.55 54.21-.01 15.62 38.43 25.02 76.75 25.41z" class="cls-6"/>
        <path d="M241.18 420.06c-37.66-.38-75.42-9.47-76.69-24.62-1.59 35.3 155 35.21 153.38 0-1.28 15.15-39.03 24.24-76.69 24.62z" class="cls-7"/>
        <path d="M297 73.6h18l-2.55-10.37c-2-8.07-33.06-14.48-71.11-14.48s-69.12 6.41-71.11 14.48l-2.54 10.37h18c13 3.51 33.11 18.75 55.63 18.75S283.93 77.1 297 73.6z" class="cls-2"/>
        <path d="M315 73.6c-2.06-8.36-34.25-15-73.66-15s-71.61 6.64-73.66 15c-2.1 8.54 32 29.71 73.66 29.71S317.12 82.14 315 73.6z" class="cls-3"/>
        <path d="M315.38 342.64a16.12 16.12 0 0 0-4.18-7.67c-86 2-54.05 2-140 0a16.12 16.12 0 0 0-4.18 7.67c3.3 24.14 142.14 28.21 148.36 0z" class="cls-8"/>
        <path d="M241.18 323.49c-14.18 0-71.13.63-71.13 14.72 0 7.78 18.77 14.43 45.27 17.1 93.61 9.43 149.4-31.82 25.86-31.82z" class="cls-9"/>
        <path d="M389.71 259.3c-22.44-2.09-44.7-12.79-61.57-25a1 1 0 0 0-1.27.05c-5.52 4.71-7.26 4.86-6.68 6.71l-26.27 15.79a1 1 0 0 0-.18 1.58c21.46 23 57.27 32.1 63.71 28.47 7.55-4.26 12.81-7.18 24.34-19.44 3 .21 5.89-3.49 8.59-6.42a1 1 0 0 0-.67-1.74z" class="cls-10"/>
        <path d="M322.38 263.91l58.78 4.23.64-.67c-16.39-1-55.35-6.69-55.35-6.69l-6.25-19.71-.56.29z" class="cls-11"/>
        <path d="M241.18 64.88c-36 0-65.14 6.27-65.14 14v257.43c5.87 21.84 122.32 20.74 130.27 0V78.88c0-7.74-29.16-14-65.13-14z" class="cls-12"/>
        <path d="M272.43 94c-25.38-1.92-39.68-2.4-65.06 0-1.13.11-.84.42-.84 11a.93.93 0 0 0 1 .92c24.78-1.26 39.58-2 64.79 0a.93.93 0 0 0 1-.92V95a.93.93 0 0 0-.89-1z" class="cls-13"/>
        <path d="M176 335.18v1.14c5.87 21.84 122.32 20.74 130.27 0v-1.14c-7.91 20.74-124.35 21.82-130.27 0z" class="cls-14"/>
        <path d="M268.07 227.64a2.67 2.67 0 0 1 3 2.35v36.5a2.64 2.64 0 0 1-2.6 2.34c-19.28 2.27-33 2.84-54.73.08a2.6 2.6 0 0 1-2.5-2.34v-36.64c.02-5.08 9.6.07 56.83-2.29z" class="cls-15"/>
        <path d="M195.26 217.79c.05 1.29.7 4.76-2.75 6.14-14.35 5.74-16.51 23.68-16.51 23.68v-41l19.22 11.21M176.59 42.64c0 .06-.07 5.71-.08 13.33 20.05-32.3 108.15-33 129.89-13.33-13.63-22.49-114.11-22.84-129.81 0zm129.83 35.7a5.11 5.11 0 0 0-1.34-2.34c-6.2-6.34-32.38-11.11-63.73-11.11-36 0-65.31 6.27-65.31 14v15.9C197.48 57 299.24 66.5 306.42 78.34z" class="cls-14"/>
        <path d="M195.21 126.31v88.12c33.11 1.74 54.11 1.57 86.77.22a5.39 5.39 0 0 0 5.17-5.38v-78a5.39 5.39 0 0 0-4.93-5.37c-32.67-2.9-54.46-3.62-87.01.41z" class="cls-16"/>
        <path d="M287.15 164.38v-28.52a5.34 5.34 0 0 0-4.93-5.28c-32.67-2.79-54.46-3.54-87 .43l.06 86.78c33.11 1.72 54.05 1.56 86.71.23a5.35 5.35 0 0 0 5.17-5.3v-34.23a7.05 7.05 0 1 0 0-14.1z" class="cls-13"/>
        <path d="M282 215.09c-32.66 1.33-53.6 1.58-86.71-.13l-.06-83.79.06 86.62a824.76 824.76 0 0 0 86.71.39 5.35 5.35 0 0 0 5.17-5.3v-3.1a5.35 5.35 0 0 1-5.17 5.31z" class="cls-17"/>
        <path d="M193.25 217.92l2-86.78-3.43-2c-30.19 4.14-65.94 2-84.82-2.28a1.25 1.25 0 0 0-1.46 1.31v86.58a1.4 1.4 0 0 0 1.56 1.43c39.2-4.96 59.34-3.1 86.15 1.74z" class="cls-18"/>
        <path d="M158.67 175.09l2.17 2.56 2.16 2.52a.55.55 0 0 1-.09.76c-1.46 1.34-2.55 2.33-3.65 3.3s-2.19 1.93-3.66 3.17a.53.53 0 0 1-.75 0c-1-1.2-1.73-2.11-2.48-3s-1.49-1.84-2.48-3.09a.54.54 0 0 0-.85 0l-2.33 3.12-2.33 3.07a.53.53 0 0 1-.75.08c-1.53-1.2-2.67-2.12-3.81-3.06s-2.29-1.89-3.8-3.19a.56.56 0 0 1-.11-.76l2.09-2.6 2.09-2.64a.56.56 0 0 0-.28-.85c-1.43-.54-2.5-1-3.57-1.41s-2.14-.89-3.56-1.53a.62.62 0 0 1-.36-.72l1.31-4.28 1.31-4.3a.47.47 0 0 1 .66-.28c1.52.63 2.66 1.07 3.8 1.5s2.29.85 3.81 1.37a.5.5 0 0 0 .68-.48v-7.74a.5.5 0 0 1 .53-.51c1.89.09 3.31.11 4.72.11s2.84 0 4.72-.09a.51.51 0 0 1 .53.51v7.7a.51.51 0 0 0 .71.47c1.54-.6 2.7-1.08 3.85-1.57s2.31-1 3.84-1.71a.48.48 0 0 1 .67.25l1.5 4.24 1.5 4.22a.62.62 0 0 1-.33.73c-1.43.71-2.5 1.22-3.58 1.71s-2.15 1-3.59 1.6a.56.56 0 0 0-.29.82z" class="cls-19"/>
        <path d="M312.7 63c-.5-2-2.72-3.93-6.34-5.69 0-10.5 0-16-.1-16.14-4-6.6-15.07-11.4-29.33-14.38-5.13 5.7-5.89 14.29-7 22.25l-4.26-.34a39.93 39.93 0 0 0 0 10.41l4.86.52c1.94 1.42 2.76 4.37 3.37 7.31l-3-.31c5.1 14.87 18.72 26.23 35.47 26.23 0-2.4.06-5.74.06-8 3.46-2.47 10-6.78 9-10.89z" class="cls-20 cls-14"/>
        <circle cx="312.02" cy="44.97" r="39.6" class="cls-21"/>
        <path d="M307.15 67.39c0-32 .32-30.83-.74-30.83-5.2 0-6 .26-6-.74v-6.27a.74.74 0 0 1 .64-.73c4.69-.71 7.92-2.93 9-6.17a.74.74 0 0 1 .7-.53c8.15 0 8.65-.26 8.65.74 0 47.6.33 45.26-.74 45.26-11.23.01-11.51.29-11.51-.73z" class="cls-22"/>
        <path d="M267.15 230a3.08 3.08 0 0 1 3.19 3.18l.75 17.37v-19.71a3 3 0 0 0-3-3.18c-50.64 3.41-56.81-4.41-56.81 3.86-.02 0 28.72 1.06 55.87-1.52z" class="cls-23"/>
        <path d="M272.43 94c-25.38-1.92-39.68-2.4-65.06 0a.93.93 0 0 0-.84.92v7.44a.93.93 0 0 0 1 .92c24.78-1.26 39.58-2 64.79 0a.93.93 0 0 0 1-.92V94.9a.93.93 0 0 0-.89-.9z" class="cls-16"/>
        <path d="M272.43 96.63c-25.38-1.92-39.68-2.4-65.06 0a.93.93 0 0 0-.84.92V105a.93.93 0 0 0 1 .92c24.78-1.26 39.58-2 64.79 0a.93.93 0 0 0 1-.92v-7.4a.93.93 0 0 0-.89-.97z" class="cls-13"/>
        <path d="M202.68 107.81V92.17a1.64 1.64 0 0 1 1.45-1.64c28.33-2.76 38.92-2.6 71.53-.06a1.63 1.63 0 0 1 1.48 1.64v16a1.62 1.62 0 0 1-1.72 1.63c-40.57-3.29-51.82-.44-71.12-.29a1.62 1.62 0 0 1-1.62-1.64z" class="cls-24"/>
        <circle cx="105.48" cy="171.44" r="6.44" class="cls-25"/>
        <path d="M124.16 129.65l-2 84.33c21.34-2.75 27.71-2.77 70.6 3.91l-1-88.83c-17.54 3.22-50.03 2.75-67.6.59z" class="cls-26"/>
        <path d="M191.78 129.06l3.43 2 .06 86.72-2 .11a1.25 1.25 0 0 1-1.44-1.23z" class="cls-2"/>
        <path d="M128 70.5c-9.08-7.94-22.09-16.1-32.69-21.89.51-.88.39-1.44.14-1.8l-.64-.5c-9.65-7.57-9.53-9.23-12.71-9.26-32-.31-65.42 25-81.53 35a1.43 1.43 0 0 0-.11 2.21c4.17 4.09 8.41 8.11 12.75 12a4.12 4.12 0 0 0 3.46.53C45 107.63 46.12 113 50.79 110c22.14-14.2 50-36.89 76.06-36.45A1.74 1.74 0 0 0 128 70.5z" class="cls-19"/>
        <path d="M18.61 88.64l69.24-17.13 9.25-21.9-1.78-1-12.57 21.52C66 74.27 25.49 84.54 16.68 86.77c0 0 .73.72 1.93 1.87z" class="cls-27"/>
        <path d="M176.35 318.78c22.41 18.83 98.85 21.32 129.62.56" class="cls-28"/>
        <path d="M356.95 199.57c30.12-12 30.14-11.86 29.4-13.17-4.65-8.2-9.5-12.89-16.5-19a1 1 0 0 0-.9-.21c-15.62 3.9-23.35 7.65-29.7 10.8a1 1 0 0 0-.28 1.55c6 6.25 10.29 8.43 16.75 19.6a1 1 0 0 0 1.23.43z" class="cls-29"/>
        <path d="M224.54 187.59L235 198a1 1 0 0 0 1.41 0L261 173.48a1 1 0 0 0 0-1.41l-24.56-24.56a1 1 0 0 0-1.41 0L224.54 158a1 1 0 0 0 0 1.41l12.69 12.69a1 1 0 0 1 0 1.41l-12.69 12.69a1 1 0 0 0 0 1.39z" class="cls-30"/>
      </g>
    </g>
  </g>
</svg>
